<svg width="625" height="625" viewBox="0 0 625 625" fill="none" xmlns="http://www.w3.org/2000/svg">
<path d="M542.963 117.437H365.503V348.467H542.963V117.437Z" fill="#1EC2D8"/>
<path d="M533.958 129.161H374.514V336.731H533.958V129.161Z" fill="#1EC2D8"/>
<path d="M543.356 353.137H365.11C362.529 353.137 360.434 351.042 360.434 348.461C360.434 345.88 362.529 343.785 365.11 343.785H543.356C545.937 343.785 548.032 345.88 548.032 348.461C548.032 351.042 545.937 353.137 543.356 353.137Z" fill="#544D7C"/>
<path d="M457.726 350.399H450.741V466.759H457.726V350.399Z" fill="#544D7C"/>
<path d="M484.965 469.242C484.965 472.477 471.209 475.093 454.236 475.093C437.263 475.093 423.507 472.471 423.507 469.242C423.507 466.013 437.263 463.391 454.236 463.391C471.209 463.391 484.965 466.013 484.965 469.242Z" fill="#544D7C"/>
<path opacity="0.75" d="M511.146 268.86H397.326V272.807H511.146V268.86Z" fill="#E1ECF8"/>
<path opacity="0.75" d="M511.146 276.951H397.326V280.897H511.146V276.951Z" fill="#E1ECF8"/>
<path opacity="0.75" d="M511.146 285.047H397.326V288.993H511.146V285.047Z" fill="#E1ECF8"/>
<path opacity="0.75" d="M511.146 293.137H397.326V297.084H511.146V293.137Z" fill="#E1ECF8"/>
<path opacity="0.75" d="M511.146 301.233H397.326V305.18H511.146V301.233Z" fill="#E1ECF8"/>
<path opacity="0.75" d="M511.146 309.323H397.326V313.27H511.146V309.323Z" fill="#E1ECF8"/>
<path d="M448.032 239.815C471.083 239.815 489.769 221.129 489.769 198.079C489.769 175.029 471.083 156.343 448.032 156.343C424.982 156.343 406.296 175.029 406.296 198.079C406.296 221.129 424.982 239.815 448.032 239.815Z" fill="#E1ECF8"/>
<path d="M448.032 156.343V198.079L486.945 175.973L480.353 156.343H448.032Z" fill="white"/>
<path d="M488.223 169.838C481.042 157.228 467.488 148.716 451.939 148.716V190.452L488.223 169.838Z" fill="#CFD2E2"/>
<path d="M421.267 244.618H410.909V254.977H421.267V244.618Z" fill="#E1ECF8"/>
<path opacity="0.75" d="M444.635 249.15H425.046V254.977H444.635V249.15Z" fill="#E1ECF8"/>
<path d="M477.847 244.618H467.488V254.977H477.847V244.618Z" fill="#CFD2E2"/>
<path opacity="0.75" d="M501.215 249.15H481.626V254.977H501.215V249.15Z" fill="#E1ECF8"/>
<path d="M543.357 121.806H365.11C362.529 121.806 360.434 119.711 360.434 117.13C360.434 114.549 362.529 112.454 365.11 112.454H543.357C545.938 112.454 548.032 114.549 548.032 117.13C548.032 119.711 545.938 121.806 543.357 121.806Z" fill="#1B98B2"/>
<path d="M315.521 114.74H97.882V277.888H315.521V114.74Z" fill="#1B98B2"/>
<path d="M308.085 120.278H105.318V272.349H308.085V120.278Z" fill="#1EC2D8"/>
<path d="M281.551 129.653H131.858V141.348H281.551V129.653Z" fill="#E1ECF8"/>
<path d="M137.76 223.952H126.111V253.206H137.76V223.952Z" fill="#E1ECF8"/>
<path d="M164.016 198.275H152.367V253.206H164.016V198.275Z" fill="#E1ECF8"/>
<path d="M190.272 203.952H178.623V253.2H190.272V203.952Z" fill="#E1ECF8"/>
<path d="M216.528 176.146H204.879V253.2H216.528V176.146Z" fill="#E1ECF8"/>
<path d="M261.811 261.256H118.42V155.249H120.012V259.664H261.811V261.256Z" fill="#CFD2E2"/>
<path d="M131.273 208.113L130.208 206.927L157.488 182.431L182.755 187.923L210.116 157.465L211.296 158.524L183.322 189.67L157.946 184.161L131.273 208.113Z" fill="#CFD2E2"/>
<path d="M213.443 163.027L205.729 155.631L215.689 152.963L213.443 163.027Z" fill="#CFD2E2"/>
<path d="M294.196 156.927H240.92V159.016H294.196V156.927Z" fill="#EFEFEF"/>
<path d="M294.196 161.985H233.727V164.074H294.196V161.985Z" fill="#EFEFEF"/>
<path d="M294.196 167.037H233.727V169.126H294.196V167.037Z" fill="#EFEFEF"/>
<path d="M294.196 172.095H233.727V174.184H294.196V172.095Z" fill="#EFEFEF"/>
<path d="M294.196 177.147H233.727V179.236H294.196V177.147Z" fill="#EFEFEF"/>
<path d="M294.196 182.199H233.727V184.288H294.196V182.199Z" fill="#EFEFEF"/>
<path d="M294.196 187.257H233.727V189.346H294.196V187.257Z" fill="#EFEFEF"/>
<path d="M294.196 192.309H233.727V194.398H294.196V192.309Z" fill="#EFEFEF"/>
<path d="M294.196 197.367H233.727V199.456H294.196V197.367Z" fill="#EFEFEF"/>
<path d="M294.196 202.419H233.727V204.508H294.196V202.419Z" fill="#EFEFEF"/>
<path d="M294.196 207.477H233.727V209.566H294.196V207.477Z" fill="#EFEFEF"/>
<path d="M294.196 212.529H233.727V214.618H294.196V212.529Z" fill="#EFEFEF"/>
<path d="M294.196 217.587H233.727V219.676H294.196V217.587Z" fill="#EFEFEF"/>
<path d="M294.196 222.639H233.727V224.728H294.196V222.639Z" fill="#EFEFEF"/>
<path d="M294.196 227.697H233.727V229.786H294.196V227.697Z" fill="#EFEFEF"/>
<path d="M294.196 232.749H233.727V234.838H294.196V232.749Z" fill="#EFEFEF"/>
<path d="M294.196 237.807H233.727V239.896H294.196V237.807Z" fill="#EFEFEF"/>
<path d="M294.196 242.859H233.727V244.948H294.196V242.859Z" fill="#EFEFEF"/>
<path d="M294.19 247.917H267.552V250.006H294.19V247.917Z" fill="#EFEFEF"/>
<path d="M391.736 280.833L388.547 277.396C388.547 277.396 388.056 269.543 389.282 267.581C389.282 265.619 386.829 265.862 385.845 267.338C384.861 268.808 384.861 273.472 384.861 273.472C384.861 273.472 379.219 268.322 378.235 268.565C377.251 268.808 375.289 275.191 375.781 277.888C376.273 280.584 380.932 283.287 383.142 283.53C385.353 283.773 387.801 284.757 387.801 284.757L390.255 287.211L391.725 280.833H391.736Z" fill="#F08449"/>
<path d="M460.046 259.647C460.046 259.647 451.846 263.165 446.939 268.565C442.031 273.964 428.785 295.064 423.385 297.025C417.986 298.987 391.001 278.38 391.001 278.38L386.094 285.741C388.056 288.686 391.979 305.365 406.209 314.201C420.44 323.032 435.648 327.94 449.387 318.617C463.125 309.294 471.956 279.855 471.956 279.855L460.041 259.653L460.046 259.647Z" fill="#213266"/>
<path d="M454.786 207.234C454.786 207.234 441.372 215.411 450.532 231.441C459.693 247.471 473.924 241.58 476.863 245.509C480.133 245.179 493.38 234.387 489.456 217.049C485.532 204.618 466.887 195.457 454.78 207.234H454.786Z" fill="#505E83"/>
<path d="M474.74 499.67V519.624H484.224L489.132 488.547L474.74 499.67Z" fill="#FBA894"/>
<path d="M426.985 499.34L425.671 522.893L436.47 519.294L441.377 488.223L426.985 499.34Z" fill="#F08449"/>
<path d="M425.845 520.7C425.845 520.7 426.053 525.318 425.006 527.621C423.958 529.93 418.872 539.161 416.348 540.422C413.831 541.684 412.257 544.201 411.626 544.201C410.995 544.201 411.991 543.993 415.353 543.57C418.709 543.148 420.179 544.618 424.375 542.309C428.571 540 428.779 537.066 430.249 535.596C431.719 534.126 435.706 533.078 436.962 532.031C438.218 530.984 435.914 526.157 435.914 526.157L436.753 518.183L425.845 520.7Z" fill="#F08449"/>
<path d="M430.839 548.813C432.205 547.691 434.242 545.034 434.242 545.034V548.813H438.461C438.565 545.816 438.97 532.98 438.229 532.239C437.39 531.4 435.278 532.835 433.403 533.501C429.838 534.762 425.22 541.684 425.22 541.684C424.693 535.387 420.289 534.919 420.289 534.919C410.556 543.414 409.693 542.314 405.706 545.463C403.299 547.367 402.888 548.339 402.934 548.819H430.839V548.813Z" fill="#213266"/>
<path d="M474.734 516.713C474.734 516.713 472.633 528.46 472.216 530.353C471.8 532.245 463.825 545.249 463.825 545.249H482.708C482.708 545.249 483.756 537.488 483.97 528.044C484.178 518.605 484.392 511.47 484.392 511.47L474.74 516.713H474.734Z" fill="#F08449"/>
<path d="M443.895 336.875C443.895 336.875 444.63 338.559 443.16 331.95C441.69 325.341 438.391 307.361 437.286 295.619C436.186 283.877 451.84 269.062 451.84 269.062C451.84 269.062 454.902 261.123 460.041 259.653C465.179 258.183 479.861 258.183 479.861 258.183C479.861 258.183 500.781 257.818 505.185 271.395C510.203 279.468 499.23 301.366 497.847 304.057C482.182 334.496 489.838 336.493 489.421 337.014C489.421 337.014 472.373 344.936 459.155 343.831C445.938 342.731 443.895 336.869 443.895 336.869V336.875Z" fill="#213266"/>
<path d="M461.638 241.423C461.638 241.423 465.122 255 458.518 261.244C459.618 263.814 463.657 267.668 470.631 265.833C477.604 263.999 479.803 260.88 480.538 259.224C480.353 256.47 477.419 247.297 478.339 237.94L461.638 241.423Z" fill="#F08449"/>
<path d="M451.435 219.381C451.435 219.381 449.954 228.536 450.451 237.234C450.885 244.826 458.669 249.606 465.637 246.557C468.906 245.127 472.112 243.038 474.427 240.527C480.77 233.657 482.622 222.025 479.711 214.89C476.806 207.755 463.322 207.488 459.097 209.074C454.867 210.66 451.696 216.476 451.435 219.381Z" fill="#F08449"/>
<path d="M475.833 233.073C475.833 233.073 480.845 227.604 482.894 231.707C484.942 235.81 474.462 241.73 474.236 238.767C474.01 235.804 475.833 233.073 475.833 233.073Z" fill="#ED6343"/>
<path d="M481.615 548.813C481.939 548.044 482.072 547.344 482.072 547.344L482.269 548.813H485.122L483.964 529.3L482.494 542.309C482.494 542.309 478.929 538.952 473.264 537.482C467.598 536.013 464.034 542.517 464.034 542.517C462.054 544.994 461.169 547.315 460.781 548.813H481.62H481.615Z" fill="#213266"/>
<path d="M453.75 204.942C453.75 204.942 444.311 211.024 447.454 222.563C451.389 211.811 454.375 211.441 454.375 211.441C454.375 211.441 459.832 210.602 463.605 220.463C467.384 230.324 469.271 234.311 475.567 235.781C481.863 237.251 486.059 237.882 486.059 237.882C486.059 237.882 491.302 222.355 486.481 212.917C481.655 203.478 464.664 196.134 453.75 204.942Z" fill="#505E83"/>
<path d="M488.646 333.825C488.646 333.825 466.568 341.186 443.507 335.787L442.037 348.056C442.037 348.056 418.484 470.723 420.446 511.447C424.369 511.447 436.638 511.447 441.545 510.463C446.452 509.479 461.661 418.218 461.661 418.218C461.661 418.218 465.584 504.578 467.06 508.993C470.498 511.447 488.16 509.977 490.121 508.993C492.083 508.009 499.936 395.156 500.428 380.932C500.92 366.701 497.974 350.509 494.543 345.116C491.105 339.716 488.657 333.831 488.657 333.831L488.646 333.825Z" fill="#213266"/>
<path d="M490.343 394.689L506.289 422.308L547.932 398.266L531.986 370.646L490.343 394.689Z" fill="#B9F85F"/>
<path d="M506.47 372.095L508.108 381.742L512.031 389.265C512.031 389.265 514.155 397.118 515.301 396.95C516.447 396.788 521.846 389.265 522.5 387.135C523.154 385.011 518.9 379.45 518.9 379.45L515.955 376.834L515.301 371.273L506.47 372.089V372.095Z" fill="#F08449"/>
<path d="M491.586 293.588C491.586 295.058 503.854 371.111 504.832 375.04C507.778 377.494 517.101 374.548 517.101 374.057C517.101 373.565 516.609 369.641 516.609 369.641C516.609 369.641 522.008 363.756 522.008 343.634C522.008 323.513 509.253 269.051 500.417 265.619C491.58 262.187 491.586 293.588 491.586 293.588Z" fill="#213266"/>
<path d="M480.955 255.318C480.955 255.318 469.832 262.517 466.233 263.171C461.655 261.533 460.671 257.286 460.671 257.286C460.671 257.286 457.402 258.594 457.402 260.231C457.402 261.869 459.693 264.809 459.693 264.809L454.132 277.563L459.039 278.871L462.639 266.771C462.639 266.771 459.039 292.286 460.347 295.231C463.293 296.539 467.546 294.248 467.546 294.248L467.876 268.732C467.876 268.732 480.307 265.463 483.906 261.209C485.544 258.264 480.961 255.324 480.961 255.324L480.955 255.318Z" fill="#E1ECF8"/>
<path d="M478.339 206.742C478.339 206.742 478.831 199.381 486.678 198.889C494.531 198.397 502.87 215.573 493.547 220.48C488.773 222.992 476.371 220.48 478.339 206.742Z" fill="#505E83"/>
<path d="M179.115 523.819L178.756 543.947L190.046 543.056L192.147 522.425L179.115 523.819Z" fill="#FFC5B3"/>
<path d="M202.355 550.984C204.664 550.689 206.389 551.533 207.135 552.766C207.882 553.999 206.14 557.951 201.644 559.022C196.065 560.347 193.09 560 190.226 559.41C185.37 558.403 182.94 555.133 179.74 555.364C176.539 555.596 174.144 554.062 174.387 551.447C174.635 548.831 176.852 546.713 177.72 546.638C178.588 546.562 202.35 550.989 202.35 550.989L202.355 550.984Z" fill="white"/>
<path d="M194.12 541.921C193.519 540.816 191.406 538.542 190.33 538.559C183.31 538.669 185.098 541.597 183.2 542.072C180.301 542.795 179.242 541.904 178.721 540.457C178.721 540.457 177.344 539.913 177.274 541.638C177.205 543.362 175.677 543.31 175.503 546.482C175.33 549.653 178.368 552.726 182.118 553.351C185.868 553.976 189.479 557.552 195.341 557.853C202.598 558.229 205.995 556.557 206.863 554.207C207.731 551.858 204.942 549.421 199.398 546.343C194.855 543.82 194.78 543.143 194.115 541.927L194.12 541.921Z" fill="#131F2D"/>
<path d="M164.734 376.169C164.734 376.169 170.729 426.134 171.267 436.736C171.528 441.863 174.664 454.954 175.631 477.697C176.667 502.002 178.391 534.549 178.391 534.549C178.391 534.549 190.961 536.482 190.961 536.117C190.961 535.909 197.795 496.007 201.649 469.983C204.618 449.925 204.508 432.124 205.503 418.42C207.407 392.309 205.064 353.38 205.064 353.38L182.882 344.028L164.734 376.157V376.169Z" fill="#213266"/>
<path d="M181.262 493.675C182.749 476.128 185.162 459.022 182.749 441.406C180.203 422.847 187.147 388.131 182.836 370.023C181.777 365.561 166.302 378.75 165.799 374.277L164.734 376.169C164.734 376.169 170.729 426.134 171.267 436.736C171.528 441.863 174.664 454.954 175.631 477.702C176.667 502.008 178.391 534.554 178.391 534.554C178.391 534.554 179.068 534.658 180.098 534.815C179.433 521.111 180.098 507.344 181.262 493.675Z" fill="#131F2D"/>
<path d="M139.381 528.316L139.022 548.443L150.312 547.552L152.413 526.921L139.381 528.316Z" fill="#FFC5B3"/>
<path d="M191.383 340.88C191.383 340.88 189.653 348.559 187.211 359.352C183.206 377.072 177.274 403.165 173.947 417.292C171.626 427.153 167.222 450.995 162.986 474.815C157.459 505.874 152.211 536.91 152.211 536.91L142.98 537.251L137.465 537.737C137.465 537.737 138.084 496.024 137.17 448.403C136.753 426.354 133.796 398.125 133.843 386.933C133.964 351.591 144.797 330.949 144.797 330.949L191.383 340.874V340.88Z" fill="#213266"/>
<path d="M191.383 340.88C191.383 340.88 189.653 348.559 187.211 359.352C172.604 361.586 156.51 363.518 150.909 363.518C142.17 363.518 146.209 401.152 148.895 421.991C151.586 442.824 147.552 470.376 143.524 488.524C140.48 502.234 142.031 526.296 142.98 537.251L137.465 537.737C137.465 537.737 138.084 496.024 137.17 448.403C136.753 426.354 133.796 398.125 133.843 386.933C133.964 351.591 144.797 330.949 144.797 330.949L191.383 340.874V340.88Z" fill="#131F2D"/>
<path d="M154.387 546.418C153.785 545.312 151.672 543.038 150.596 543.056C143.576 543.165 145.365 546.094 143.466 546.568C140.567 547.292 139.508 546.4 138.987 544.954C138.987 544.954 137.61 544.41 137.54 546.134C137.471 547.859 135.943 547.807 135.77 550.978C135.596 554.149 138.634 557.222 142.384 557.847C146.134 558.472 149.745 562.049 155.608 562.349C162.865 562.726 166.262 561.053 167.13 558.704C167.998 556.354 165.208 553.918 159.664 550.839C155.122 548.316 155.046 547.639 154.381 546.424L154.387 546.418Z" fill="#131F2D"/>
<path d="M223.981 265.804C225.515 262.818 226.823 255.619 226.823 255.619L237.899 259.838C240.55 268.906 260.122 304.334 264.115 309.925C265.966 312.511 305.075 331.979 305.075 331.979L303.067 343.356C303.067 343.356 266.291 337.755 249.034 327.13C244.196 324.149 242.795 319.896 239.757 315.914C234.578 309.12 222.24 297.228 219.543 285.88C216.846 274.525 220.255 273.05 223.981 265.804Z" fill="#131F2D"/>
<path d="M213.328 221.343C213.328 221.343 212.911 222.633 210.451 226.719C207.992 230.804 203.177 235.243 201.47 236.123C199.763 237.002 191.429 239.421 189.323 239.554C189.323 239.554 197.164 263.206 209.109 268.189C231.956 277.72 229.52 252.726 229.52 252.726C229.52 252.726 223.646 246.175 222.095 242.766C221.169 240.741 223.871 232.974 223.871 232.974L213.328 221.343Z" fill="#F08449"/>
<path d="M223.883 245.949C223.883 245.949 223.154 256.505 211.51 255.046C197.436 253.287 196.591 237.76 196.591 237.76L182.153 240.214L192.095 270.99L221.858 279.346L231.852 252.743L223.889 245.955L223.883 245.949Z" fill="#213266"/>
<path d="M217.025 323.223C219.931 315.868 237.905 259.838 237.905 259.838L224.659 244.317C224.659 244.317 223.744 272.766 210.457 273.044C192.326 265.885 191.493 238.675 191.493 238.675L168.316 243.391C168.316 243.391 155.66 282.541 150.475 297.5C145.289 312.46 138.171 349.016 138.171 349.016C170.353 361.725 201.047 359.751 208.218 355.602C208.218 355.602 214.12 330.585 217.025 323.229V323.223Z" fill="#213266"/>
<path d="M240.127 208.108C241.788 210.017 244.479 213.808 244.028 215.897C243.576 217.98 242.558 224.172 241.244 227.593C239.931 231.007 237.141 240.012 235.37 243.924C233.594 247.836 232.575 249.086 231.377 249.525C230.179 249.965 219.734 246.539 217.986 244.919C216.244 243.304 208.6 235.313 211.591 226.69C211.591 226.69 207.193 227.384 206.429 218.611C206.233 216.325 215.394 210.457 216.944 208.304C220.706 203.073 232.049 208.125 235.388 208.623C238.727 209.12 240.127 208.108 240.127 208.108Z" fill="#F08449"/>
<path d="M244.028 215.897C244.028 215.897 243.669 212.784 240.995 213.27C238.322 213.756 233.148 213.038 229.439 211.638C225.729 210.237 222.552 207.575 222.552 207.575C222.552 207.575 220.978 212.969 219.531 214.126C218.084 215.289 215.237 216.354 214.583 218.061C213.924 219.769 213.559 221.563 213.559 221.563C213.559 221.563 212.118 217.818 210.052 217.847C207.986 217.876 207.049 221.088 208.518 223.096C209.988 225.11 211.586 226.684 211.586 226.684L212.454 240.046C212.454 240.046 207.431 224.063 206.377 218.287C204.902 210.185 206.516 201.701 210.856 200.984C210.856 200.984 213.414 192.234 223.067 193.31C232.726 194.387 247.882 204.433 248.293 209.381C248.623 213.368 244.016 215.891 244.016 215.891L244.028 215.897Z" fill="#131F2D"/>
<path d="M235.77 238.38C234.589 237.413 232.784 236.638 229.769 236.238C226.302 235.781 223.021 236.615 220.666 236.563C218.304 236.505 214.641 231.539 214.838 226.528C215.035 221.522 215.625 216.782 215.625 216.782L213.553 217.917C213.553 217.917 212.106 226.673 210.804 231.678C209.502 236.678 210.723 242.743 215.561 247.321C220.399 251.898 229.097 253.015 231.169 251.875C233.241 250.741 234.809 247.593 235.723 244.653C236.094 243.461 236.858 241.383 236.979 240.336C237.037 239.844 236.221 238.744 235.775 238.38H235.77Z" fill="#131F2D"/>
<path d="M303.299 535.208H309.554V493.611H303.299V535.208Z" fill="#131F2D"/>
<path d="M301.4 493.611H311.458V484.78H301.4V493.611Z" fill="#E1E6FD"/>
<path d="M301.4 539.624H311.458V530.793H301.4V539.624Z" fill="#E1E6FD"/>
<path d="M294.236 484.78H318.623V468.067H294.236V484.78Z" fill="#94A0FF"/>
<path d="M340.92 475.59H274.369C273.958 475.59 273.628 475.26 273.628 474.85V463.814C273.628 463.403 273.958 463.073 274.369 463.073H340.92C341.331 463.073 341.661 463.403 341.661 463.814V474.85C341.661 475.26 341.331 475.59 340.92 475.59Z" fill="#94A0FF"/>
<path d="M282.187 548.056L301.395 538.536V531.892L279.67 546.458L282.187 548.056Z" fill="#94A0FF"/>
<path d="M275.168 549.925C275.168 552.408 277.182 554.427 279.67 554.427C282.159 554.427 284.172 552.413 284.172 549.925C284.172 547.437 282.159 545.423 279.67 545.423C277.182 545.423 275.168 547.437 275.168 549.925Z" fill="#94A0FF"/>
<path d="M301.927 556.007C301.927 558.49 303.941 560.509 306.429 560.509C308.918 560.509 310.932 558.495 310.932 556.007C310.932 553.519 308.918 551.505 306.429 551.505C303.941 551.505 301.927 553.519 301.927 556.007Z" fill="#94A0FF"/>
<path d="M330.665 548.056L311.458 538.536V531.892L333.183 546.458L330.665 548.056Z" fill="#94A0FF"/>
<path d="M337.685 549.925C337.685 552.408 335.671 554.427 333.183 554.427C330.694 554.427 328.681 552.413 328.681 549.925C328.681 547.437 330.694 545.423 333.183 545.423C335.671 545.423 337.685 547.437 337.685 549.925Z" fill="#94A0FF"/>
<path d="M305.208 555.955H307.645V535.214H305.208V555.955Z" fill="#94A0FF"/>
<path d="M258.588 470.046C258.588 470.046 252.922 454.96 252.83 411.279C252.737 367.593 243.299 337.726 244.12 333.97L248.738 329.502H311.985C311.985 329.502 336.91 374.08 340.174 389.358C343.443 404.636 348.009 467.251 348.009 467.251L258.582 470.046H258.588Z" fill="#213266"/>
<path d="M264.294 470.046C264.294 470.046 258.628 454.96 258.536 411.279C258.443 367.593 247.922 333.258 248.744 329.502H317.697C317.697 329.502 342.622 374.08 345.885 389.358C349.155 404.636 353.721 467.251 353.721 467.251L264.294 470.046Z" fill="#131F2D"/>
<path d="M258.588 470.046L273.628 480V462.732L258.588 452.778V470.046Z" fill="#213266"/>
<path d="M273.628 480H368.258V462.731H273.628V480Z" fill="#213266"/>
<path d="M258.588 452.778H353.223L368.258 462.732H273.628L258.588 452.778Z" fill="#131F2D"/>
<path d="M288.848 462.732H368.258L353.218 452.778H278.235C280.775 456.638 285.029 459.936 288.843 462.732H288.848Z" fill="#3D2BF9"/>
<path d="M368.837 543.877L370.758 555.845C370.758 555.845 372.934 560.347 378.206 560.121C381.001 560 385.909 558.38 384.821 557.517C382.072 555.341 381.441 553.489 381.441 553.489L380.584 539.172L368.831 543.871L368.837 543.877Z" fill="#FFBCAA"/>
<path d="M383.906 554.89C382.187 553.628 379.612 555.555 377.917 555.995C375.336 556.661 372.315 555.648 371.701 554.444C371.076 553.223 370.191 553.449 370.295 554.895C370.399 556.342 369.19 556.898 369.34 559.566C369.491 562.228 372.569 564.751 376.065 565.202C379.56 565.654 383.212 568.582 388.605 568.721C395.284 568.889 398.397 567.54 398.964 565.549C399.531 563.559 395.92 561.412 391.152 558.999C386.84 556.817 384.907 555.625 383.906 554.89Z" fill="#2603C2"/>
<path d="M338.501 550.087L340.422 562.054C340.422 562.054 342.598 566.557 347.87 566.331C350.631 566.215 356.169 565.295 355.052 564.508C351.157 561.759 351.105 559.705 351.105 559.705L350.249 545.388L338.495 550.087H338.501Z" fill="#FFBCAA"/>
<path d="M306.539 294.091C306.539 294.091 306.528 302.436 307.367 306.285C308.2 310.133 309.873 312.957 310.81 313.877C311.748 314.797 321.574 322.02 321.574 322.02C321.574 322.02 311.331 332.494 304.005 332.569C296.672 332.639 281.429 324.282 281.429 324.282C281.429 324.282 289.358 317.888 290.521 314.682C291.678 311.476 292.251 302.228 292.251 302.228L306.534 294.091H306.539Z" fill="#F08449"/>
<path d="M339.809 405.972C337.853 399.062 336.163 392.384 336.163 389.357C336.163 381.742 332.448 325.214 332.448 325.214L317.743 318.223L310.816 313.883C310.816 313.883 316.447 326.655 307.975 328.061C294.502 330.301 290.405 313.073 290.405 313.073L286.973 314.838C286.944 314.751 286.921 314.682 286.91 314.67L263.906 326.013C263.906 326.013 272.008 339.3 272.656 346.748C273.304 354.201 266.823 374.612 267.471 389.844C268.119 405.075 269.988 430.619 269.988 430.619C274.149 430.619 336.655 424.653 336.655 424.653C336.655 424.653 337.703 406.267 339.809 405.978V405.972Z" fill="#E1ECF8"/>
<path d="M382.309 545.85L371.227 547.627L367.355 548.246C367.355 548.246 360.197 508.142 355.22 493.842C350.243 479.543 344.676 466.047 344.676 466.047C344.676 466.047 329.728 456.371 320.532 453.119C319.659 452.806 318.848 452.563 318.096 452.378C282.876 443.9 290.098 421.863 290.573 407.772C290.573 407.772 326.198 410.416 335.608 417.008C363.252 436.354 372.112 450.96 374.473 458.686C377.598 468.889 377.807 487.384 379.057 502.077C381.157 526.574 382.309 545.85 382.309 545.85Z" fill="#213266"/>
<path d="M371.227 547.621L367.355 548.241C367.355 548.241 360.197 508.136 355.22 493.837C350.243 479.537 344.676 466.041 344.676 466.041C344.676 466.041 329.728 456.366 320.532 453.113C313.351 439.913 306.661 432.407 306.661 432.407C306.661 432.407 330.469 442.72 341.586 448.275C352.697 453.831 359.045 458.599 361.429 476.059C363.599 491.927 370.353 521.568 371.233 547.621H371.227Z" fill="#131F2D"/>
<path d="M350.833 551.771L339.19 554.346L337.332 554.763C337.332 554.763 322.911 482.471 307.622 466.661C302.512 461.377 287.714 456.574 279.838 452.373C267.396 445.729 269.132 436.91 269.913 424.728C269.983 423.542 270.058 422.326 270.098 421.065H309.005C309.005 421.065 335.017 449.653 338.443 457.419C340.926 463.055 344.913 470.845 346.962 485.845C350.833 514.207 350.833 551.765 350.833 551.765V551.771Z" fill="#213266"/>
<path d="M339.196 554.346L337.338 554.763C337.338 554.763 322.917 482.471 307.627 466.661C302.517 461.377 287.72 456.574 279.844 452.372C267.402 445.729 269.138 436.909 269.919 424.728C269.919 424.728 274.005 436.07 274.711 440.011C277.506 455.665 297.98 441.823 313.432 457.743C328.883 473.675 335.232 502.251 336.024 524.479C336.348 533.536 337.726 544.161 339.196 554.34V554.346Z" fill="#131F2D"/>
<path d="M340.098 566.626C340.885 566.545 363.067 569.786 363.067 569.786C365.15 569.491 366.811 570.168 367.616 571.186C368.42 572.205 367.211 575.561 363.194 576.551C358.218 577.778 355.457 577.546 352.778 577.106C348.235 576.36 345.694 573.663 342.789 573.918" fill="white"/>
<path d="M352.992 561.985C351.505 560.723 348.322 562.529 346.632 562.963C344.051 563.628 341.03 562.616 340.417 561.412C339.792 560.191 338.906 560.417 339.01 561.863C339.115 563.31 337.905 563.866 338.056 566.533C338.206 569.195 341.285 571.719 344.78 572.17C348.276 572.621 351.927 575.55 357.321 575.688C363.999 575.856 366.944 574.386 367.512 572.396C368.079 570.405 365.289 568.414 359.919 565.943C355.515 563.912 353.941 562.789 352.998 561.991L352.992 561.985Z" fill="#2603C2"/>
<path d="M219.855 431.453L500 431.453V424.641L219.855 424.641V431.453Z" fill="#213266"/>
<path d="M189.369 407.772H469.514L500 424.647H219.855L189.369 407.772Z" fill="#131F2D"/>
<path d="M219.855 431.453L189.369 414.578V407.772L219.855 424.647V431.453Z" fill="#213266"/>
<path d="M231.939 576.493H236.059L272.587 431.453H264.074L231.939 576.493Z" fill="#131F2D"/>
<path d="M493.038 571.979H488.918L447.274 431.453H455.787L493.038 571.979Z" fill="#131F2D"/>
<path d="M212.876 560.66H216.997L250.608 431.453H242.089L212.876 560.66Z" fill="#131F2D"/>
<path d="M461.904 550.776H457.784L425.289 431.453H433.808L461.904 550.776Z" fill="#131F2D"/>
<path d="M396.516 400.735L408.646 407.234L413.698 416.088H408.646L402.118 412.118L400.012 416.088L396.516 416.215L392.049 412.674L380.017 402.859L396.516 400.735Z" fill="#FFBCAA"/>
<path d="M358.976 376.244C357.963 374.433 354.138 361.655 350.48 351.071C345.503 353.108 340.503 355.069 335.428 356.8C335.619 361.522 336.082 366.319 336.36 371.117C340.556 380.33 345.174 389.294 348.802 392.014C355.382 396.95 389.045 409.884 389.045 409.884L393.692 400.596C393.692 400.596 360.475 378.918 358.981 376.238L358.976 376.244Z" fill="#F08449"/>
<path d="M333.605 365.226C339.612 365.226 354.971 362.222 354.971 362.222C354.971 362.222 347.523 342.425 345.666 338.825C341.499 330.741 332.448 325.208 332.448 325.208C332.448 325.208 326.771 333.084 325.069 335.833C318.247 346.863 330.029 360.301 333.6 365.226H333.605Z" fill="#E1ECF8"/>
<path d="M334.416 339.566L335.538 363.918C335.914 372.158 335.914 387.893 337.037 392.014" stroke="#A1ADFF" stroke-width="0.578704" stroke-linecap="round" stroke-linejoin="round"/>
<path d="M334.213 413.137H406.84L371.603 401.892H298.97L334.213 413.137Z" fill="#E1ECF8"/>
<path d="M298.97 401.892L334.213 413.137V417.367L298.97 406.128V401.892Z" fill="#94A0FF"/>
<path d="M318.733 397.211L329.363 397.523L341.285 395L353.721 401.892L359.126 406.267L356.285 407.512L352.905 405.26L353.721 407.772L349.022 407.512L347.13 406.267V407.772L343.524 408.738L339.89 406.267L332.13 404.948L323.727 404.155L318.733 397.211Z" fill="#FFBCAA"/>
<path d="M284.936 379.265C282.737 376.076 281.863 369.277 280.978 356.516C274.19 354.45 264.537 352.616 257.882 350.283C258.403 372.778 265.029 392.789 271.887 397.691C281.354 404.456 327.407 404.219 327.407 404.219L329.363 397.523C312.593 395.208 288.802 384.873 284.936 379.265Z" fill="#F08449"/>
<path d="M281.973 366.8C281.233 359.601 280.874 347.899 281.256 343.906C282.211 333.86 268.918 322.778 263.906 326.007C256.302 330.914 257.118 351.736 259.606 370.359C266.314 368.437 275.231 368.27 281.973 366.8Z" fill="#E1ECF8"/>
<path d="M334.207 417.367H406.84V413.131H334.207V417.367Z" fill="#CFD2E2"/>
<path d="M337.332 404.375L343.27 406.215L355.897 320.607L352.378 322.448L337.332 404.375Z" fill="#1B98B2"/>
<path d="M343.27 406.215L452.211 402.529L467.824 318.767L355.897 320.608L343.27 406.215Z" fill="#1EC2D8"/>
<path d="M394.334 417.778H411.464L399.931 415.7H382.795L394.334 417.778Z" fill="#E1E6FD"/>
<path d="M411.47 417.778H394.334V421.58H411.47V417.778Z" fill="#1B98B2"/>
<path d="M394.334 421.58L382.795 419.502V415.7L394.334 417.778V421.58Z" fill="#1B98B2"/>
<path d="M390.411 417.06L394.514 418.067L409.132 417.778L411.464 378.31H392.488L390.411 417.06Z" fill="#1B98B2"/>
<path d="M394.514 418.067L411.464 417.778V378.31H394.334L394.514 418.067Z" fill="#1EC2D8"/>
<path d="M259.601 370.359L281.968 366.8C281.968 366.8 282.309 346.516 282.309 341.591" stroke="#A1ADFF" stroke-width="0.578704" stroke-linecap="round" stroke-linejoin="round"/>
<path d="M282.431 276.852C279.578 282.06 280.498 287.483 281.169 290.903C281.834 294.323 282.598 296.424 282.332 300.886C282.066 305.342 283.299 311.811 288.744 315.318C294.19 318.825 304.45 314.184 307.378 308.333C309.155 304.78 312.17 296.626 312.674 293.64C313.183 290.654 314.878 280.643 310.885 276.568C306.892 272.494 299.983 272.512 292.975 273.854C285.966 275.197 283.634 274.659 282.431 276.858V276.852Z" fill="#F08449"/>
<path d="M297.564 280.926C297.564 280.926 300.399 285.839 303.773 287.136C306.661 288.247 306.615 295.098 306.615 295.098L310.897 296.03C311.661 298.478 309.045 304.259 309.045 304.259C309.045 304.259 312.118 302.147 313.189 298.171C314.259 294.196 317.089 290.735 315.787 282.269C314.566 274.317 307.911 274.149 307.911 274.149C307.911 274.149 307.222 269.734 298.814 268.513C290.405 267.292 281.076 272.795 279.855 277.685C278.634 282.575 280.052 287.703 280.052 287.703C280.052 287.703 296.944 284.751 297.558 280.926H297.564Z" fill="#131F2D"/>
<path d="M309.45 290.967C311.198 288.397 314.896 288.374 315.179 291.696C315.417 294.468 314.109 295.185 312.315 297.726C311.1 299.45 309.317 298.675 309.317 298.675C309.317 298.675 308.362 292.558 309.444 290.961L309.45 290.967Z" fill="#F08449"/>
<path d="M222.344 364.803L233.131 373.646C234.977 375.133 237.87 375.087 239.601 373.553L277.535 339.508C279.253 337.986 279.178 335.556 277.355 334.074L266.782 325.226C263.247 323.299 261.105 323.235 259.334 324.792L221.493 358.49C219.711 360.064 219.485 361.597 222.344 364.797V364.803Z" fill="#CFD2E2"/>
<path d="M223.316 365.718L234.184 374.641C236.042 376.134 238.947 376.094 240.683 374.554L278.773 340.353C280.498 338.825 280.411 336.389 278.582 334.89L267.911 325.978C265.99 324.41 262.986 324.41 261.209 325.978L223.038 359.994C221.244 361.58 221.372 364.138 223.316 365.706V365.718Z" fill="#213266"/>
<path d="M243.085 357.442L242.159 357.072L244.578 355.631L245.237 353.976L244.508 353.53L246.464 351.51L247.28 349.207C247.28 349.207 241.991 349.103 238.791 348.981C235.596 348.86 232.593 348.061 232.593 348.061C232.593 348.061 235.567 345.793 236.036 345.133C236.505 344.473 238.837 343.27 238.837 343.27L235.023 341.985C235.023 341.985 225.752 345.874 224.797 345.92C223.866 345.961 218.628 348.414 211.233 344.658C209.213 347.592 207.153 350.503 205.069 353.397C211.655 355.44 217.234 357.106 219.607 357.818C227.228 360.11 234.091 361.62 235.156 361.811C236.221 362.002 242.824 358.999 242.76 358.958C242.697 358.918 243.09 357.454 243.09 357.454L243.085 357.442Z" fill="#F08449"/>
<path d="M165.509 244.473C153.519 252.309 158.75 291.001 160.752 300.515C163.125 311.8 166.14 322.245 172.911 330.648C188.241 349.682 212.251 357.205 212.251 357.205L218.9 346.256C218.9 346.256 195.475 329.358 193.09 311.452C191.684 300.897 187.517 270.966 186.128 262.98C184.016 250.822 171.655 240.457 165.509 244.473Z" fill="#213266"/>
<path d="M305.868 355.504C303.16 355.504 300.422 353.113 298.634 349.138C296.892 345.266 291.169 328.646 288.461 315.382C288.426 315.226 288.53 315.075 288.686 315.041C288.843 315.012 288.993 315.11 289.028 315.266C291.73 328.49 297.431 345.046 299.161 348.901C300.955 352.882 303.686 355.179 306.291 354.907C308.895 354.63 310.978 351.736 312.002 346.962C315.174 332.153 311.441 314.092 311.4 313.912C311.366 313.756 311.47 313.6 311.626 313.571C311.782 313.536 311.939 313.64 311.968 313.796C312.008 313.976 315.764 332.159 312.569 347.083C311.094 353.976 308.044 355.301 306.354 355.48C306.192 355.498 306.03 355.504 305.868 355.504Z" fill="#1EC2D8"/>
<path d="M313.623 356.834H298.229V379.867H313.623V356.834Z" fill="#1EC2D8"/>
<path d="M300.093 358.901V369.149H311.765V358.901H300.093Z" fill="white"/>
<path d="M305.885 357.882C305.457 357.882 305.116 357.535 305.116 357.112V354.954C305.116 354.525 305.463 354.184 305.885 354.184C306.314 354.184 306.655 354.531 306.655 354.954V357.112C306.655 357.541 306.308 357.882 305.885 357.882Z" fill="#1EC2D8"/>
</svg>
