<svg xmlns="http://www.w3.org/2000/svg" xmlns:xlink="http://www.w3.org/1999/xlink" width="977.733" height="826.564" viewBox="0 0 977.733 826.564">
  <defs>
    <linearGradient id="linear-gradient" y1="0.5" x2="1" y2="0.5" gradientUnits="objectBoundingBox">
      <stop offset="0" stop-color="#85c2dd"/>
      <stop offset="1" stop-color="#92e6fd"/>
    </linearGradient>
    <linearGradient id="linear-gradient-2" x1="-1.431" y1="-1.858" x2="1.928" y2="2.244" gradientUnits="objectBoundingBox">
      <stop offset="0" stop-color="#689eb8"/>
      <stop offset="1" stop-color="#7cd3ec"/>
    </linearGradient>
  </defs>
  <g id="Group_556" data-name="Group 556" transform="translate(-860.821 -85.676)">
    <g id="Group_546" data-name="Group 546" transform="translate(-339.654 224.527)">
      <g id="Group_522" data-name="Group 522" transform="translate(1594.05 0)">
        <rect id="Rectangle_500" data-name="Rectangle 500" width="310.671" height="300.242" rx="17.93" transform="translate(310.671 327.972) rotate(180)" fill="#9bb5bf" opacity="0.2" style="mix-blend-mode: multiply;isolation: isolate"/>
        <rect id="Rectangle_501" data-name="Rectangle 501" width="310.671" height="300.242" rx="17.93" transform="translate(310.671 300.242) rotate(180)" fill="#62cacd"/>
        <g id="Group_520" data-name="Group 520" transform="translate(32.526 25.5)">
          <rect id="Rectangle_502" data-name="Rectangle 502" width="19.423" height="114.965" rx="4.293" transform="translate(30.598 26.512)" fill="#fff"/>
          <rect id="Rectangle_504" data-name="Rectangle 504" width="19.423" height="114.965" rx="4.293" transform="translate(65.82 26.512)" fill="#fff"/>
          <rect id="Rectangle_505" data-name="Rectangle 505" width="19.423" height="98.779" rx="4.293" transform="translate(65.82 42.698)" fill="#383c6b"/>
          <rect id="Rectangle_506" data-name="Rectangle 506" width="19.423" height="114.965" rx="4.293" transform="translate(101.043 26.512)" fill="#fff"/>
          <rect id="Rectangle_507" data-name="Rectangle 507" width="19.423" height="74.501" rx="4.293" transform="translate(101.043 66.977)" fill="#383c6b"/>
          <rect id="Rectangle_508" data-name="Rectangle 508" width="19.423" height="114.965" rx="4.293" transform="translate(136.265 26.512)" fill="#fff"/>
          <rect id="Rectangle_509" data-name="Rectangle 509" width="19.423" height="50.222" rx="4.293" transform="translate(136.265 91.256)" fill="#383c6b"/>
          <rect id="Rectangle_510" data-name="Rectangle 510" width="19.423" height="114.965" rx="4.293" transform="translate(171.488 26.512)" fill="#fff"/>
          <rect id="Rectangle_511" data-name="Rectangle 511" width="19.423" height="74.501" rx="4.293" transform="translate(171.488 66.977)" fill="#383c6b"/>
          <rect id="Rectangle_512" data-name="Rectangle 512" width="19.423" height="114.965" rx="4.293" transform="translate(206.71 26.512)" fill="#fff"/>
          <rect id="Rectangle_513" data-name="Rectangle 513" width="19.423" height="25.943" rx="4.293" transform="translate(206.71 115.535)" fill="#383c6b"/>
          <g id="Group_519" data-name="Group 519" transform="translate(0 24.819)">
            <g id="Group_516" data-name="Group 516" transform="translate(9.3 1.693)">
              <path id="Path_4751" data-name="Path 4751" d="M1936.215,204.859H1720.382V75.022h2.395V202.465h213.438Z" transform="translate(-1720.382 -75.022)" fill="#fff"/>
            </g>
            <g id="Group_517" data-name="Group 517">
              <path id="Path_4752" data-name="Path 4752" d="M1726.27,84.77l-8.8-8.8-8.8,8.8-1.693-1.693,10.5-10.5,10.5,10.5Z" transform="translate(-1706.969 -72.58)" fill="#fff"/>
            </g>
            <g id="Group_518" data-name="Group 518" transform="translate(214.635 119.836)">
              <path id="Path_4753" data-name="Path 4753" d="M2018.245,266.422l-1.693-1.693,8.8-8.8-8.8-8.8,1.693-1.693,10.5,10.5Z" transform="translate(-2016.552 -245.428)" fill="#fff"/>
            </g>
          </g>
          <rect id="Rectangle_514" data-name="Rectangle 514" width="28.972" height="7.415" rx="1.639" transform="translate(25.823)" fill="#fff"/>
          <rect id="Rectangle_515" data-name="Rectangle 515" width="28.972" height="7.415" rx="1.639" transform="translate(61.046)" fill="#fff"/>
          <rect id="Rectangle_516" data-name="Rectangle 516" width="28.972" height="7.415" rx="1.639" transform="translate(96.268)" fill="#fff"/>
          <rect id="Rectangle_517" data-name="Rectangle 517" width="28.972" height="7.415" rx="1.639" transform="translate(131.491)" fill="#fff"/>
          <rect id="Rectangle_518" data-name="Rectangle 518" width="28.972" height="7.415" rx="1.639" transform="translate(166.713)" fill="#fff"/>
          <rect id="Rectangle_519" data-name="Rectangle 519" width="28.972" height="7.415" rx="1.639" transform="translate(201.936)" fill="#fff"/>
        </g>
        <g id="Group_521" data-name="Group 521" transform="translate(29.448 216.398)">
          <path id="Path_4754" data-name="Path 4754" d="M1704.221,369.732l-1.693-1.693,35.519-35.52a10.855,10.855,0,0,1,15.332,0l8.772,8.773a8.448,8.448,0,0,0,11.946,0,10.853,10.853,0,0,1,15.333,0l12.857,12.856a8.459,8.459,0,0,0,11.946,0l38.852-38.852a10.853,10.853,0,0,1,15.332,0l18.275,18.275a8.459,8.459,0,0,0,11.946,0l6.722-6.722a10.837,10.837,0,0,1,15.331,0l25.512,25.511-1.693,1.692L1919,328.543a8.444,8.444,0,0,0-11.946,0l-6.722,6.722a10.857,10.857,0,0,1-15.333,0l-18.274-18.275a8.458,8.458,0,0,0-11.947,0l-38.852,38.852a10.851,10.851,0,0,1-15.332,0l-12.856-12.857a8.46,8.46,0,0,0-11.947,0,10.839,10.839,0,0,1-15.331,0l-8.773-8.772a8.459,8.459,0,0,0-11.946,0Z" transform="translate(-1702.528 -312.126)" fill="#fff"/>
        </g>
        <rect id="Rectangle_520" data-name="Rectangle 520" width="28.385" height="4.389" rx="0.97" transform="translate(64.472 202.886)" fill="#fff"/>
        <rect id="Rectangle_521" data-name="Rectangle 521" width="28.386" height="4.389" rx="0.97" transform="translate(100.37 202.886)" fill="#fff"/>
        <rect id="Rectangle_522" data-name="Rectangle 522" width="28.385" height="4.389" rx="0.97" transform="translate(231.488 202.886)" fill="#fff"/>
        <path id="Path_4755" data-name="Path 4755" d="M1933.878,310.506a6.152,6.152,0,1,1-6.152-6.152A6.152,6.152,0,0,1,1933.878,310.506Z" transform="translate(-1740.261 -93.345)" fill="#d28474"/>
        <path id="Path_4756" data-name="Path 4756" d="M2056.208,368.855a6.152,6.152,0,1,1-6.152-6.152A6.152,6.152,0,0,1,2056.208,368.855Z" transform="translate(-1777.78 -111.24)" fill="#d28474"/>
        <path id="Path_4757" data-name="Path 4757" d="M1766.347,337.131a6.152,6.152,0,1,1-6.152-6.152A6.153,6.153,0,0,1,1766.347,337.131Z" transform="translate(-1688.88 -101.51)" fill="#d28474"/>
        <path id="Path_4758" data-name="Path 4758" d="M1819.344,349.471a6.152,6.152,0,1,1-6.152-6.152A6.152,6.152,0,0,1,1819.344,349.471Z" transform="translate(-1705.134 -105.295)" fill="#d28474"/>
      </g>
      <g id="Group_527" data-name="Group 527" transform="translate(1564.366 108.639)">
        <g id="Group_523" data-name="Group 523" transform="translate(116.275 527.032)">
          <path id="Path_4759" data-name="Path 4759" d="M1805.9,943c-1.118-6.869-.48-16.087-.48-16.087s-8.921-22.587-14.656,0c-1.4,5.509-1.1,11.736-1.789,16.087H1805.9Z" transform="translate(-1786.185 -916.873)" fill="#efc5c5"/>
          <path id="Path_4760" data-name="Path 4760" d="M1827.763,965.265c-3.717.212-10.2-1.273-17.388-6.044a12.414,12.414,0,0,1-4.434-6.5h-19.473c-2.124,13.49-1.4,21.133-1.4,21.133h9.877l.319-4.772,1.274,4.772h38.232S1836.112,964.789,1827.763,965.265Z" transform="translate(-1784.95 -927.867)" fill="#2a2a2a"/>
        </g>
        <g id="Group_524" data-name="Group 524" transform="translate(50.023 527.032)">
          <path id="Path_4761" data-name="Path 4761" d="M1710.341,943c-1.118-6.869-.48-16.087-.48-16.087s-8.921-22.587-14.656,0c-1.4,5.509-1.1,11.736-1.789,16.087h16.924Z" transform="translate(-1690.625 -916.873)" fill="#efc5c5"/>
          <path id="Path_4762" data-name="Path 4762" d="M1732.2,965.265c-3.717.212-10.2-1.273-17.389-6.044a12.416,12.416,0,0,1-4.434-6.5h-19.473c-2.124,13.49-1.4,21.133-1.4,21.133h9.877l.319-4.772,1.274,4.772h38.232S1740.552,964.789,1732.2,965.265Z" transform="translate(-1689.39 -927.867)" fill="#2a2a2a"/>
        </g>
        <path id="Path_4763" data-name="Path 4763" d="M1868.591,384.488a28.72,28.72,0,0,1,10.359-2.834c5.718-.378,20.251-8.779,23.467-14.708s-6.3,0-6.3,0,7.588-2.965,7.717-5.56-9.187,1.174-9.187,1.174,5.585-.68,5.714-3.028-9.26-.989-14.662,1.853-14.175,7.164-11.939,2.13,4.4-9.016.492-6.465c-2.443,1.6-6.559,9.66-7.331,13.546a5.742,5.742,0,0,1-3.987,4.626Z" transform="translate(-1692.592 -217.902)" fill="#efc5c5"/>
        <path id="Path_4764" data-name="Path 4764" d="M1729.042,267.222s9.009-4.753,19.988,1.445-10.763,16.853-10.763,16.853l-13.132-7.965Z" transform="translate(-1650.33 -190.061)" fill="#b3c8e7"/>
        <g id="Group_525" data-name="Group 525" transform="translate(80.287 57.496)">
          <rect id="Rectangle_523" data-name="Rectangle 523" width="17.357" height="31.323" fill="#efc5c5"/>
        </g>
        <path id="Path_4765" data-name="Path 4765" d="M1750.4,258.413V239.628h-17.357v7.857a44.472,44.472,0,0,0,14.146,9.875h0C1748.242,257.748,1749.318,258.1,1750.4,258.413Z" transform="translate(-1652.755 -182.133)" fill="#efc5c5" style="mix-blend-mode: color-burn;isolation: isolate"/>
        <path id="Path_4766" data-name="Path 4766" d="M1732.932,485.514l2.334,22.152.053.014s7.743,76.954,19.828,124.827c.794,3.146-1.036,23.563-1.414,26.784-.907,7.728-1.882,26.4,2.667,61.5,6.328,48.84,12.674,80.288,12.674,80.288l21.545-1.139-1.674-158.669-9.493-157.959Z" transform="translate(-1652.721 -256.872)" fill="#525252"/>
        <path id="Path_4767" data-name="Path 4767" d="M1684.463,482.939l.115,22.265.051.019s.036,77.312,7.292,126.077c.477,3.2-3.38,23.359-4.078,26.531-1.674,7.608-4.506,26.107-3.478,61.468,1.43,49.2,4.611,81.085,4.611,81.085l21.56.848,14.153-158.094,6.3-158.1Z" transform="translate(-1637.759 -256.755)" fill="#606060"/>
        <path id="Path_4768" data-name="Path 4768" d="M1731.673,216.87s-2.321-7.226-6.13-5.021-.2,18.035,5.192,16.762S1731.673,216.87,1731.673,216.87Z" transform="translate(-1649.97 -173.484)" fill="#efc5c5"/>
        <g id="Group_526" data-name="Group 526" transform="translate(80.287 57.496)">
          <rect id="Rectangle_524" data-name="Rectangle 524" width="17.357" height="31.323" fill="#efc5c5"/>
        </g>
        <path id="Path_4769" data-name="Path 4769" d="M1750.4,258.413V239.628h-17.357v7.857a44.472,44.472,0,0,0,14.146,9.875h0C1748.242,257.748,1749.318,258.1,1750.4,258.413Z" transform="translate(-1652.755 -182.133)" fill="#efc5c5" style="mix-blend-mode: color-burn;isolation: isolate"/>
        <path id="Path_4770" data-name="Path 4770" d="M1835.035,345.158l-27.316,24.756-5.485-59.343c-.021-.338-.054-.72-.1-1.061-1.1-8.51-7.344-27.6-16.792-28.509-.906-.087-6.89-1.67-2.616.542-12.305,4.565-9.493,26.62-8.19,41.893l9.642,74.662.1.747a11.708,11.708,0,0,0,3.884,7.262,12.762,12.762,0,0,0,17.525-.654l41.552-40.5Z" transform="translate(-1665.105 -194.629)" fill="#d8e7fd"/>
        <path id="Path_4771" data-name="Path 4771" d="M1731.673,216.87s-2.321-7.226-6.13-5.021-.2,18.035,5.192,16.762S1731.673,216.87,1731.673,216.87Z" transform="translate(-1649.97 -173.484)" fill="#efc5c5"/>
        <path id="Path_4772" data-name="Path 4772" d="M1762.919,442.694l5.094-126.866c.592-20.932-6.6-38.227-29.1-40.3l-17.153-2.038s-31.249,1.956-37.176,3.731-11.216,8.777-12.485,33.1c-.006.12.008.213,0,.329a43.759,43.759,0,0,0-.191,5.176l6.892,126.866Z" transform="translate(-1634.002 -192.518)" fill="#d8e7fd"/>
        <path id="Path_4773" data-name="Path 4773" d="M1758.292,170.924c-3.49-5.091-17.644-10.111-26.789-4.188s-12.077,15.129-12.609,27.887c-.279,6.722,2.929,14.371,6.028,20.106,6.224,10.3,18.915,13.659,18.915,13.659h0c4.421,1.02,9.133,1.409,12.786-.021,7.362-9,7.939-22.525,7.769-28.724-.538-6.881-1.332-12.43-1.494-13.528C1762.9,186.116,1761.781,176.015,1758.292,170.924Z" transform="translate(-1648.411 -158.955)" fill="#efc5c5"/>
        <path id="Path_4774" data-name="Path 4774" d="M1730.9,270.076l-4.229,1.341-2.227,2s1.738,22.914,16.272,22.839,12.322-22.535,12.322-22.535l-10.427-2.2Z" transform="translate(-1650.119 -191.471)" fill="#efc5c5"/>
        <path id="Path_4775" data-name="Path 4775" d="M1724.922,215.562c-3.1-5.735-6.307-13.384-6.028-20.106.427-10.251,2.411-18.2,7.917-24.009a32.345,32.345,0,0,1,8.583-3.919,17.334,17.334,0,0,1,8.082-.5c2.51.435,6.323,1.023,11.26,1.594a12.009,12.009,0,0,1,3.555,3.134c3.489,5.091,4.605,15.192,4.605,15.192.1.649.413,2.858.766,5.969-5.747,3.8-12.147,3.313-17.728-.438-6.451-4.334-18.444,2.809-16.457,12.24.923,4.378,3.354,12.509,5.037,20.244A29.111,29.111,0,0,1,1724.922,215.562Z" transform="translate(-1648.411 -159.786)" fill="#efc5c5" style="mix-blend-mode: color-burn;isolation: isolate"/>
        <path id="Path_4776" data-name="Path 4776" d="M1666.935,324.9l-26.274,69.925-5.022-12.833,68.678,40.195a5.917,5.917,0,0,1-5.384,10.517L1626.167,400.5a9.766,9.766,0,0,1-5.253-12.189l.232-.644,25.191-70.323a10.971,10.971,0,1,1,20.657,7.4C1666.982,324.775,1666.948,324.865,1666.935,324.9Z" transform="translate(-1618.194 -203.736)" fill="#efc5c5"/>
        <path id="Path_4777" data-name="Path 4777" d="M1749.45,157.807a18.75,18.75,0,0,1,10.488,10.348c.784,1.835,1.937,3.679,3.5,4.126,3.334.953,8.342,3.4,6.066,9.542s-10.511,10.145-16.52,8.349-11.567-7.931-16.381-5.182-2.345,15.73-7.287,13.565-6.524,4.456-1.555,9.954,2.285,12.283-1.05,11.33-11.159-12.556-12.057-26.352,5.609-29.124,15.106-30.4C1729.759,163.091,1737.939,153.509,1749.45,157.807Z" transform="translate(-1647.09 -156.698)" fill="#32324f"/>
        <path id="Path_4778" data-name="Path 4778" d="M1738.386,212.771s2.543,7.915,4.769,10.194,7.881-1.253,12.971-.049a35.783,35.783,0,0,0,12.3.925s-1.358,19.353-7.619,21.158-20.311-1.626-22.011-4.407,1.505-21.845-3.706-24.84S1738.386,212.771,1738.386,212.771Z" transform="translate(-1652.865 -173.896)" fill="#32324f"/>
        <path id="Path_4779" data-name="Path 4779" d="M1726.053,481.549s5.61,1.434,9.227,4.655,22.733,4.324,25.753.15-.618-5.573-.618-5.573,2.711.223,2.565-1.19c-.324-3.148-25.985-5.926-22.375-7.814s9.387,3.2,10.953,2.335-1.834-4.323-10.691-6.91c0,0-2.108-.953-14.623,2.389S1726.053,481.549,1726.053,481.549Z" transform="translate(-1648.949 -251.89)" fill="#efc5c5"/>
        <rect id="Rectangle_525" data-name="Rectangle 525" width="59.741" height="88.775" transform="matrix(-0.984, -0.178, 0.178, -0.984, 141.769, 280.629)" fill="#333"/>
        <path id="Path_4780" data-name="Path 4780" d="M1740.867,467.2s-2.108-.953-14.623,2.389-.19,11.958-.19,11.958,5.61,1.434,9.227,4.655,22.733,4.324,25.753.15-.618-5.573-.618-5.573,2.711.223,2.565-1.19c-.324-3.148-25.985-5.926-22.375-7.814Z" transform="translate(-1648.949 -251.89)" fill="#efc5c5"/>
        <circle id="Ellipse_185" data-name="Ellipse 185" cx="2.273" cy="2.273" r="2.273" transform="translate(130.967 193.281)" fill="#bdbdbd"/>
        <path id="Path_4781" data-name="Path 4781" d="M1742.367,306.574s6.242,2.153,9.579,0-4.09-6.135-4.09-6.135H1744.3Z" transform="translate(-1655.615 -200.783)" fill="#b3c8e7"/>
        <path id="Path_4782" data-name="Path 4782" d="M1789.713,434.475a2.273,2.273,0,1,0,2.273-2.273A2.274,2.274,0,0,0,1789.713,434.475Z" transform="translate(-1670.136 -241.194)" fill="#bdbdbd"/>
        <path id="Path_4783" data-name="Path 4783" d="M1667.819,278.871s-16.076,1.516-24.472,31.292-25.3,61.566-26.029,67.31c-2.852,22.559,70.875,49.016,70.875,49.016s.851-15.343,11.625-21.814c0,0-58.145-27.41-54.084-32.992,7.086-9.742,16.834-36.707,16.834-36.707S1671.841,296.173,1667.819,278.871Z" transform="translate(-1617.239 -194.168)" fill="#d8e7fd"/>
        <path id="Path_4784" data-name="Path 4784" d="M1727.386,267.992S1728,289.3,1739.3,290.057s8.073-20.62,8.073-20.62l8.982,4.748s.167,23.514-11.565,26.312l-5.382-9.9-3.946,9.9s-13.706-3.336-15.725-27.467Z" transform="translate(-1648.675 -190.832)" fill="#c7d6f0"/>
        <path id="Path_4785" data-name="Path 4785" d="M1715.06,479.8l-10.223-3.973s3.738-16.935,10.951-23.14l10.9,5.3S1718.6,471.208,1715.06,479.8Z" transform="translate(-1644.105 -247.476)" fill="#b3c8e7"/>
        <path id="Path_4786" data-name="Path 4786" d="M1858.445,373.818l12.2,19.791-8.084,7.88L1849.638,381.8Z" transform="translate(-1688.515 -223.288)" fill="#b3c8e7"/>
        <path id="Path_4787" data-name="Path 4787" d="M1744.881,300.594l-2.464,6.567-4.838,58.035,11.8,23.6,7.809-23.6-9.332-58.022Z" transform="translate(-1654.146 -200.831)" fill="#606060"/>
      </g>
      <g id="Group_530" data-name="Group 530" transform="translate(1832.828 115.989)">
        <path id="Path_4788" data-name="Path 4788" d="M2255.188,345.83c-16.84-16.442-9.9-62.559-23.735-77.766-15.03-16.523-27.927-18.248-33.582-27.619a9.149,9.149,0,0,0-7-4.319h0a8.978,8.978,0,0,1-8.167-7.612l-4.031-30a8.852,8.852,0,0,0-5.934-7.124c-10.453-3.661-33.252-10.056-37.542,1.985-5.6,15.728-2.336,27.708,0,43.194,1.518,10.066-1.287,15.782-3.437,18.551a8.433,8.433,0,0,0-1.861,5.773c1.719,23.985,11.071,159.216,5.976,193.85-5.6,38.047,21.527,88.915,63.719,97.186s65.781-16.243,57.119-55.113c-6.607-29.641,4.3-32.671,10.332-65.342C2272.677,400.961,2279.729,369.792,2255.188,345.83Z" transform="translate(-2042.927 -173.153)" fill="#32324f"/>
        <path id="Path_4789" data-name="Path 4789" d="M2148.907,937.757s.838,6.584,1.556,10.689-4.867,11.83-4.867,11.83l-12.582-2.977s.517-16.036-.031-27.326S2148.907,937.757,2148.907,937.757Z" transform="translate(-2043.873 -400.113)" fill="#efc5c5"/>
        <path id="Path_4790" data-name="Path 4790" d="M2138.492,957.445s-7.966,3.238-19.806,2.2c0,0-5.324,9.109-14.642,11.161-10.62,2.341-14.854,2.064-14.854,2.064a4.516,4.516,0,0,0,3.873,5.377c4.736.828,26.908.163,34.66-3.092,4.307-1.809,5.6,1.656,5.6,1.656l8.18-.825S2142.8,961.72,2138.492,957.445Z" transform="translate(-2030.428 -409.634)" fill="#2a2a2a"/>
        <path id="Path_4791" data-name="Path 4791" d="M2242.773,933.2s.838,6.584,1.556,10.69-4.867,11.829-4.867,11.829l-12.582-2.977s.517-16.035-.031-27.326S2242.773,933.2,2242.773,933.2Z" transform="translate(-2072.662 -398.715)" fill="#efc5c5"/>
        <path id="Path_4792" data-name="Path 4792" d="M2039.7,390.086a28.724,28.724,0,0,0-10.359-2.834c-5.718-.378-20.251-8.779-23.467-14.709s6.3,0,6.3,0-7.588-2.965-7.717-5.56,9.186,1.174,9.186,1.174-5.585-.68-5.714-3.028,9.26-.988,14.662,1.853,14.174,7.164,11.939,2.13-4.4-9.016-.493-6.464c2.443,1.6,6.56,9.66,7.332,13.545a5.742,5.742,0,0,0,3.987,4.626Z" transform="translate(-2004.46 -226.968)" fill="#efc5c5"/>
        <g id="Group_528" data-name="Group 528" transform="translate(113.597 54.027)">
          <rect id="Rectangle_526" data-name="Rectangle 526" width="17.357" height="31.323" fill="#efc5c5"/>
        </g>
        <path id="Path_4793" data-name="Path 4793" d="M2168.309,264.01V245.226h17.357v7.856a44.479,44.479,0,0,1-14.146,9.875h0C2170.466,263.346,2169.39,263.7,2168.309,264.01Z" transform="translate(-2054.712 -191.199)" fill="#efc5c5" style="mix-blend-mode: color-burn;isolation: isolate"/>
        <path id="Path_4794" data-name="Path 4794" d="M2170,490.6l-1.257,22.239-.053.017s-4,77.239-13.752,125.642c-.641,3.18,2.178,23.485,2.711,26.685,1.282,7.674,3.161,26.279.321,61.562-3.952,49.089-8.766,80.808-8.766,80.808l-21.575-.093-6.023-158.563,1.821-158.233Z" transform="translate(-2040.389 -266.454)" fill="#383c6b"/>
        <path id="Path_4795" data-name="Path 4795" d="M2189.749,218.967s1.229-7.489,5.323-5.87,2.863,17.807-2.662,17.344S2189.749,218.967,2189.749,218.967Z" transform="translate(-2061.06 -181.274)" fill="#efc5c5"/>
        <path id="Path_4796" data-name="Path 4796" d="M2219,484.712l.964,22.244-.051.021s3.714,77.223-1.169,126.282c-.321,3.224,4.509,23.168,5.36,26.3,2.041,7.519,5.767,25.858,6.455,61.227.958,49.209-.673,81.213-.673,81.213l-21.493,1.893-21.8-157.221-13.96-157.613Z" transform="translate(-2056.037 -264.648)" fill="#383c6b"/>
        <g id="Group_529" data-name="Group 529" transform="translate(113.597 54.027)">
          <rect id="Rectangle_527" data-name="Rectangle 527" width="17.357" height="31.323" fill="#efc5c5"/>
        </g>
        <path id="Path_4797" data-name="Path 4797" d="M2168.309,264.01V245.226h17.357v7.856a44.479,44.479,0,0,1-14.146,9.875h0C2170.466,263.346,2169.39,263.7,2168.309,264.01Z" transform="translate(-2054.712 -191.199)" fill="#efc5c5" style="mix-blend-mode: color-burn;isolation: isolate"/>
        <path id="Path_4798" data-name="Path 4798" d="M2058.648,351.018l27.316,24.756,5.485-59.343c.021-.338.055-.72.1-1.061,1.1-8.509,7.934-29.564,16.792-28.509a16.761,16.761,0,0,1,2.617.542c12.3,4.565,9.493,26.619,8.189,41.892l-9.642,74.662-.1.747a11.717,11.717,0,0,1-3.884,7.262,12.763,12.763,0,0,1-17.526-.654l-41.551-40.5Z" transform="translate(-2017.338 -203.956)" fill="#d8e7fd"/>
        <path id="Path_4799" data-name="Path 4799" d="M2189.749,218.967s1.229-7.489,5.323-5.87,2.863,17.807-2.662,17.344S2189.749,218.967,2189.749,218.967Z" transform="translate(-2061.06 -181.274)" fill="#efc5c5"/>
        <path id="Path_4800" data-name="Path 4800" d="M2249.412,303.709l25.744,88.119.144.49a8.043,8.043,0,0,1,.28,2.99l-8.9,91.239a5.915,5.915,0,0,1-11.8-.571l-.058-91.673.424,3.479-26.849-87.789a10.971,10.971,0,1,1,20.983-6.417Z" transform="translate(-2072.99 -206.713)" fill="#efc5c5"/>
        <path id="Path_4801" data-name="Path 4801" d="M2120.934,448.292l-5.095-126.866c-.591-20.932,6.6-38.227,29.1-40.3l17.152-2.037s31.249,1.957,37.176,3.731,11.216,8.777,12.485,33.1c.006.12-.008.214,0,.33a44.012,44.012,0,0,1,.19,5.176l-6.892,126.866Z" transform="translate(-2038.61 -201.584)" fill="#d8e7fd"/>
        <path id="Path_4802" data-name="Path 4802" d="M2142.162,178.628c2.7-5.551,15.958-12.6,25.877-8.094s14.177,13.182,16.584,25.722c1.269,6.608-.776,14.647-2.995,20.776-4.636,11.107-16.693,16.3-16.693,16.3h0c-4.221,1.66-8.825,2.741-12.648,1.866-8.609-7.813-11.176-21.108-11.921-27.263-.483-6.885-.517-12.491-.519-13.6C2139.847,194.332,2139.461,184.178,2142.162,178.628Z" transform="translate(-2045.977 -167.85)" fill="#efc5c5"/>
        <path id="Path_4803" data-name="Path 4803" d="M2182.782,275.673l4.229,1.341,2.227,2s-1.737,22.914-16.272,22.838-12.323-22.535-12.323-22.535l10.427-2.2Z" transform="translate(-2052.324 -200.537)" fill="#efc5c5"/>
        <path id="Path_4804" data-name="Path 4804" d="M2277.355,553.555s-.287,5.79,1.722,10.2-2.583,23.021-7.463,24.675-5.142-2.239-5.142-2.239-.587,2.658-1.895,2.1c-2.911-1.24,2.013-26.605-.857-23.71s.287,9.925-1,11.166-3.588-3.033-3.444-12.269c0,0-.287-2.3,6.6-13.28S2277.355,553.555,2277.355,553.555Z" transform="translate(-2082.608 -283.464)" fill="#efc5c5"/>
        <path id="Path_4805" data-name="Path 4805" d="M2181.629,217.816c2.219-6.129,4.264-14.169,2.995-20.776-1.935-10.076-5.071-17.649-11.372-22.578a32.353,32.353,0,0,0-9.068-2.61,17.338,17.338,0,0,0-8.067.7c-2.419.8-6.1,1.944-10.9,3.238a12.009,12.009,0,0,0-3.053,3.625c-2.7,5.55-2.314,15.7-2.314,15.7,0,.656.014,2.888.124,6.017,6.245,2.911,12.5,1.484,17.47-3.049,5.741-5.239,18.656.058,18.082,9.679-.266,4.465-1.471,12.866-2,20.765A29.131,29.131,0,0,0,2181.629,217.816Z" transform="translate(-2045.977 -168.635)" fill="#efc5c5" style="mix-blend-mode: color-burn;isolation: isolate"/>
        <path id="Path_4806" data-name="Path 4806" d="M2160,167.494a17.328,17.328,0,0,0-8.067.7c-3.606,1.195-9.966,3.141-18.757,5.229-11.205,2.661-7.117,16.969-.3,21.685,7.176,4.963,14.638,3.86,20.379-1.379s18.656.058,18.082,9.679-5.508,37.519,1.408,39.285,29.706,5.842,29.706,5.842-11.323-19.792-11.029-33.3.329-24.782-7.456-30.051C2176.755,180.3,2177.952,170.252,2160,167.494Z" transform="translate(-2041.797 -167.299)" fill="#32324f"/>
        <path id="Path_4807" data-name="Path 4807" d="M2235.744,284.469s16.076,1.515,24.472,31.291,19.159,70.305,19.159,76.095-4.09,77.749-4.09,77.749a56.471,56.471,0,0,1-23.249,0s3.444-72.372-1.077-83.539-9.964-45.491-9.964-45.491S2231.723,301.771,2235.744,284.469Z" transform="translate(-2075.084 -203.234)" fill="#d8e7fd"/>
        <path id="Path_4808" data-name="Path 4808" d="M2232.469,957.472s-7.966,3.237-19.806,2.2c0,0-5.324,9.109-14.641,11.162-10.621,2.341-14.854,2.063-14.854,2.063a4.517,4.517,0,0,0,3.874,5.378c4.736.828,26.908.162,34.659-3.092,4.307-1.809,5.6,1.656,5.6,1.656l8.18-.824S2236.773,961.747,2232.469,957.472Z" transform="translate(-2059.251 -409.642)" fill="#2a2a2a"/>
        <path id="Path_4809" data-name="Path 4809" d="M2145.368,280.919s-7.487,49.4-5.282,74.088.882,152.506.882,152.506-21.64-2.1-30.25-7.271c0,0,3.368-154.44,3.528-164.768s-3.519-46.955,13.8-51.075S2145.368,280.919,2145.368,280.919Z" transform="translate(-2037.049 -202.135)" fill="#ed4364"/>
        <path id="Path_4810" data-name="Path 4810" d="M2200.433,278.449s0,46.533.565,71.94c.551,24.776,3.835,154.654,3.835,154.654s21.639-2.1,30.25-7.271c0,0,.161-129.741,0-140.068s-3.392-73.718-8.472-75.082C2209.989,278.161,2200.433,278.449,2200.433,278.449Z" transform="translate(-2064.564 -201.387)" fill="#ed4364"/>
      </g>
    </g>
    <g id="Group_555" data-name="Group 555" transform="translate(-1904.905 -872.42)">
      <g id="Group_551" data-name="Group 551" transform="translate(3529.098 958.096)">
        <g id="Group_547" data-name="Group 547">
          <circle id="Ellipse_186" data-name="Ellipse 186" cx="94.102" cy="94.102" r="94.102" transform="matrix(0.989, -0.15, 0.15, 0.989, 0, 28.297)" fill="#383c6b" opacity="0.11"/>
        </g>
        <g id="Group_548" data-name="Group 548" transform="translate(9.244 9.244)">
          <circle id="Ellipse_187" data-name="Ellipse 187" cx="75.956" cy="75.956" r="75.956" transform="translate(0 53.814) rotate(-20.747)" fill="#fff"/>
        </g>
        <g id="Group_550" data-name="Group 550" transform="translate(96.706 37.023)">
          <g id="Group_549" data-name="Group 549">
            <path id="Path_4828" data-name="Path 4828" d="M2781.958,1299.2c.534.711.556.318.457-.348C2781.837,1298.617,2781.5,1298.59,2781.958,1299.2Z" transform="translate(-2773.113 -1224.86)" fill="#2d3353"/>
            <path id="Path_4829" data-name="Path 4829" d="M2777.328,1282.49l50.98,24.305c2.147,1.023,4.034-2.178,1.875-3.208l-30.915-14.739c-5.386-2.568-10.98-6.108-16.663-7.944-.345-.112-1.625-.862-2.428-1.193.1.666.078,1.059-.457.348-.46-.612-.121-.585.457-.348-.089-.6-.274-1.409-.283-1.868-.468-23.4-3.54-47-5.3-70.343-.179-2.369-3.894-2.389-3.714,0q2.763,36.692,5.527,73.384A1.869,1.869,0,0,0,2777.328,1282.49Z" transform="translate(-2770.875 -1205.717)" fill="#2d3353"/>
          </g>
        </g>
      </g>
      <rect id="Rectangle_529" data-name="Rectangle 529" width="143.056" height="184.588" rx="26" transform="translate(2765.727 1589.659)" fill="#62cacd"/>
      <g id="Group_554" data-name="Group 554" transform="translate(2839.229 1347.839)">
        <path id="Path_4830" data-name="Path 4830" d="M2979.673,1859.527s7.513,17.693,15.459,22.671c6.647,4.165,16.045,14.331,11.492,21.934s-52.917-23.12-50.958-29.756,18.287-28.226,18.287-28.226Z" transform="translate(-2914.65 -1481.517)" fill="#353636"/>
        <path id="Path_4831" data-name="Path 4831" d="M3007.579,1461.811l27.646,64.034-7.461-3.879,64.794-6.681a5.528,5.528,0,0,1,1.439,10.957l-64.321,10.278a7,7,0,0,1-7.054-3.219l-.407-.661-36.755-59.277a12.511,12.511,0,1,1,21.267-13.186A13.567,13.567,0,0,1,3007.579,1461.811Z" transform="translate(-2922.567 -1370.599)" fill="#efc5c5"/>
        <path id="Path_4832" data-name="Path 4832" d="M3002.692,1454.28s6.54-1.73,10.643,5.673,27.244,60.018,27.244,60.018l19.675-10.055-9.23,22.818-25.382-2.307-14.8-22.292Z" transform="translate(-2927.976 -1370.556)" fill="#c24c63"/>
        <g id="Group_552" data-name="Group 552" transform="translate(57.743 56.76)">
          <path id="Path_4833" data-name="Path 4833" d="M2997.117,1454.6l-18.1-3.334,2.47-13.411-1.788-21.117,18.1,3.332Z" transform="translate(-2979.019 -1416.741)" fill="#efc5c5"/>
        </g>
        <path id="Path_4834" data-name="Path 4834" d="M2962.557,1349.279s-7.369-18.137-23.963-9.258-26.234,35.5-17.418,67.916-4.406,75.5-12.89,88.142-21.4,68.581,11.253,69.024,10.453-26.637,15.336-47.946,26.847-71.124,19.861-85.728-23.949-86.068,2.291-80.081S2962.557,1349.279,2962.557,1349.279Z" transform="translate(-2898.481 -1337.574)" fill="#292945"/>
        <path id="Path_4835" data-name="Path 4835" d="M2999.967,1435.32l1.914-18.579h-14.335l-.866,4.7C2990.615,1428.638,2993.022,1434.414,2999.967,1435.32Z" transform="translate(-2923.444 -1359.981)" fill="#efc5c5" opacity="0.54"/>
        <path id="Path_4836" data-name="Path 4836" d="M2999.264,1503.366c1.9-13.784-6.974-33.885-6.979-33.9a39.246,39.246,0,0,0-7.4-15.572,48.684,48.684,0,0,0-8.24-2.254,45.428,45.428,0,0,0-14.948-.256h0a18.407,18.407,0,0,0-7.17,3.73c-.006.005-11.533,10.433-12.239,49.334s-14.481,64.907-14.481,64.907c-.073.508-.341,6.886-.071,6.45,2.319-3.739.571,16.066,10.22,9.971,27.628,3.241,48.48.292,56.213-1.42a23.144,23.144,0,0,0,1.07-5.913,30.326,30.326,0,0,0-.031-3.42l-.065-.87-.437-6.016-.224-3.014c-.068-1.007-.085-2.024-.131-3.036l-.241-6.091c-.056-2.037-.042-4.085-.069-6.132l-.028-3.073c-.015-1.025.033-2.055.046-3.083l.12-6.18.278-6.2s-.052-2.036-.122-5.419h0C2995.293,1513.079,2997.362,1517.154,2999.264,1503.366Z" transform="translate(-2906.726 -1369.645)" fill="#c24c63"/>
        <path id="Path_4837" data-name="Path 4837" d="M3023.378,1389.381s-7.786,26.225-14.482,31.215-21.953-13.943-21.953-13.943l9.032-24.766,20.532-6.954,8,11.489Z" transform="translate(-2923.519 -1348.147)" fill="#efc5c5"/>
        <path id="Path_4838" data-name="Path 4838" d="M3057.029,1539.708a21.9,21.9,0,0,1,6.392-4.224,8,8,0,0,0,4.455-4.25c1.373-3.9,6.081-7.122,6.866-4.918s-5.885,12.888-.2,10.345,9.612-10.684,9.612-10.684,3.531,26.625-19.813,25.607C3048.361,1550.887,3052.7,1543.989,3057.029,1539.708Z" transform="translate(-2942.223 -1390.791)" fill="#eec6a8"/>
        <path id="Path_4839" data-name="Path 4839" d="M2982.637,1473.649l6.883,76.409-10.406-5.48,52.481-22.982a5.529,5.529,0,0,1,4.751,9.978l-50.92,26.257a7.153,7.153,0,0,1-10.236-4.729l-.169-.751-17.032-74.8a12.506,12.506,0,0,1,24.387-5.553A13.756,13.756,0,0,1,2982.637,1473.649Z" transform="translate(-2915.234 -1372.865)" fill="#efc5c5"/>
        <path id="Path_4840" data-name="Path 4840" d="M3100.782,1550.639l-41.509-.041a3.74,3.74,0,0,1-3.63-4.624l15.84-65.106a5.322,5.322,0,0,1,5.175-4.063l41.509.042a3.74,3.74,0,0,1,3.63,4.624l-15.841,65.106A5.319,5.319,0,0,1,3100.782,1550.639Z" transform="translate(-2942.933 -1376.981)" fill="url(#linear-gradient)"/>
        <path id="Path_4841" data-name="Path 4841" d="M2957.926,1476.477s11.69,81.084,20.481,83.648,43.916-20.343,43.916-20.343-6.41-9.911-4.615-16.063L2988.45,1537.8l-4.328-66.185s-2.328-15.8-14.625-12.746S2956.645,1468.062,2957.926,1476.477Z" transform="translate(-2915.172 -1371.794)" fill="#b2374f"/>
        <path id="Path_4842" data-name="Path 4842" d="M3101.968,1551.808l-41.509-.041a3.74,3.74,0,0,1-3.63-4.624l15.84-65.106a5.32,5.32,0,0,1,5.175-4.062l41.509.042a3.74,3.74,0,0,1,3.63,4.624l-15.841,65.106A5.319,5.319,0,0,1,3101.968,1551.808Z" transform="translate(-2943.268 -1377.312)" fill="#cad6e0"/>
        <path id="Path_4843" data-name="Path 4843" d="M2981.749,1447.516s9.9-.051,13.695,4.77c3.072,3.9,6.36,6.565,9.437,6.155,0,0,1.026-.616-8.822-13.951s-1.641,1.641-1.641,1.641Z" transform="translate(-2922.048 -1366.269)" fill="#efc5c5"/>
        <path id="Path_4844" data-name="Path 4844" d="M3141.406,1538.09a20.082,20.082,0,0,0-3.693-9.321c-3.357-4.66-9.4-4.427-8.057,2.33s2.35,7.69,2.35,10.952,4.029,4.194,6.043,1.864A23.09,23.09,0,0,0,3141.406,1538.09Z" transform="translate(-2963.857 -1390.791)" fill="#efc5c5"/>
        <path id="Path_4845" data-name="Path 4845" d="M2975.817,1806.033l98.976-145.283a14.741,14.741,0,0,0,2.712-7.115,14.584,14.584,0,0,0-13.053-15.968l-1.749-.176-115.985-12.31a28.8,28.8,0,0,0-5.44,0c-14.957,1.5-18.632,11.215-21.079,28.16-2.148,14.877,14.845,25.863,29.8,24.361l84.449-7.666-4.944-4.531-72.5,127.325Z" transform="translate(-2904.575 -1418.94)" fill="#2b2e5b"/>
        <path id="Path_4846" data-name="Path 4846" d="M3145.151,1903.319s16.881,9.194,26.2,8.156c7.8-.868,21.476,1.257,22.634,10.043s-55.826,14.77-58.416,8.353-3.214-33.477-3.214-33.477Z" transform="translate(-2964.675 -1495.739)" fill="#353636"/>
        <path id="Path_4847" data-name="Path 4847" d="M3061.967,1766.827q-7.169-14.119-14.095-28.266-3.46-7.071-6.762-14.114l-3.212-7-3.075-7.023a128.006,128.006,0,0,0-9.253-16.267c-3.19-4.86-6.45-9.465-9.776-13.926-6.643-8.936-13.487-17.438-20.443-25.792s-14.034-16.511-21.2-24.581c-3.583-4.034-8.416-7.23-12.051-11.219q-1.474-1.614-2.938-3.21-.922-1.058-1.87-2.031c-2.053-2.225-4.125-4.454-6.282-6.737l-.934.974a16.518,16.518,0,0,0-8.141-2.433c-15.977,0-20.175,15.729-23.867,33.784-3.747,18.316,8.206,32.005,23.867,33.92a25.025,25.025,0,0,0,3.1,0,28.554,28.554,0,0,1,20.436,8.416l.089.091c7.253,7.358,14.35,14.816,21.012,22.366,3.34,3.771,6.531,7.573,9.485,11.34a99.846,99.846,0,0,1,7.482,10.706l4.043,7.18,4.157,7.075q4.183,6.963,8.421,13.8,8.487,13.663,17.121,27.091c11.517,17.936,23.14,35.7,34.917,53.45l18.921-11.263Q3076.349,1795.119,3061.967,1766.827Z" transform="translate(-2903.829 -1413.321)" fill="#383c6b"/>
        <g id="Group_553" data-name="Group 553" transform="translate(56.254 9.762)">
          <rect id="Rectangle_530" data-name="Rectangle 530" width="10.771" height="3.749" transform="translate(0 5.31) rotate(-29.537)" fill="#89e4fd"/>
        </g>
        <path id="Path_4848" data-name="Path 4848" d="M3110.506,1511.025a3.749,3.749,0,1,1-3.75-3.75A3.75,3.75,0,0,1,3110.506,1511.025Z" transform="translate(-2956.369 -1385.605)" fill="url(#linear-gradient-2)"/>
        <path id="Path_4849" data-name="Path 4849" d="M2934.917,1579.888l-14.9,42.032s19.252-9.049,51.629-6.245l21.475,1.648Z" transform="translate(-2904.575 -1406.157)" fill="#c24c63"/>
        <path id="Path_4850" data-name="Path 4850" d="M3005.407,1375.045c2.766-.783,5.814-.038,8.067,4.469a17.31,17.31,0,0,0,1.62,2.649,3.329,3.329,0,0,0,3.24,1.269.072.072,0,0,1,.023,0c15.113,2.612,13.7-17.366,1.133-18.044-3.138-.777-5.864-.774-12.572-5.753l-.153-.1c-1.446-.884-2.22-1.463-2.268-1.5a27.735,27.735,0,0,0-11.937-4.015c-7.366-.637-16.52,1.088-19.7,12.38-5.623,19.992-6.023,31.192,7.922,43.71,0,0,5.823-.6,5.51-9.974s3.437-14.37,6.873-10.933,3.748-5.935,5.623-9.059a13.192,13.192,0,0,1,5.681-4.772A2.7,2.7,0,0,1,3005.407,1375.045Z" transform="translate(-2918.5 -1342.194)" fill="#292945"/>
      </g>
    </g>
  </g>
</svg>
