<svg width="40" height="40" viewBox="0 0 40 40" fill="none" xmlns="http://www.w3.org/2000/svg">
<g clip-path="url(#clip0_3013_4901)">
<path d="M19.9998 34.16C27.8202 34.16 34.1598 27.8203 34.1598 20C34.1598 12.1796 27.8202 5.83997 19.9998 5.83997C12.1795 5.83997 5.83984 12.1796 5.83984 20C5.83984 27.8203 12.1795 34.16 19.9998 34.16Z" fill="white"/>
<path d="M40 20C40 8.95443 31.0456 0 20 0C8.95443 0 0 8.95443 0 20C0 31.0456 8.95443 40 20 40C31.0456 40 40 31.0456 40 20ZM28.8336 30.6H23.5816V18.976H18.5552V30.6H13.272V18.976H10.276V14.676H13.272V13.3704C13.272 9.96321 15.8496 7.63843 19.684 7.63843H23.5824V11.9376H20.5544C19.3296 11.9376 18.556 12.6064 18.556 13.6896V14.676H28.8344V30.6H28.8336Z" fill="#1DBF73"/>
</g>
<defs>
<clipPath id="clip0_3013_4901">
<rect width="40" height="40" fill="white"/>
</clipPath>
</defs>
</svg>
